<svg xmlns="http://www.w3.org/2000/svg" width="180" height="70" viewBox="0 0 180 70" fill="none"><path d="M2.4 2.3002H11.4L11 3.8002H10.1C9.4 3.8002 8.9 3.8002 8.7 3.9002C8.4 4.0002 8.2 4.2002 8.1 4.4002C7.9 4.7002 7.8 5.0002 7.8 5.4002C7.8 5.8002 7.8 6.2002 7.9 6.7002L10.4 24.0002L20.1 6.5002C20.5 5.7002 20.8 5.1002 20.8 4.7002C20.8 4.4002 20.6 4.1002 20.3 3.9002C20.1 3.8002 19.6 3.7002 19 3.7002H18.1L18.4 2.2002H26.7L26.3 3.7002C25.5 3.7002 25 3.8002 24.7 3.9002C24.4 4.0002 24.1 4.2002 23.8 4.5002C23.5 4.8002 23.1 5.4002 22.6 6.2002L10.9 26.8002H7.9L4.7 6.7002C4.5 5.7002 4.4 5.0002 4.2 4.7002C4.1 4.3002 3.9 4.1002 3.6 4.0002C3.3 3.8002 2.8 3.8002 2 3.8002L2.4 2.3002Z" fill="#0070C0"/><path d="M32.1998 9.4L28.7998 22.9C28.6998 23.5 28.5998 23.9 28.5998 24.2C28.5998 24.6 28.6998 24.9 28.8998 25.1C29.0998 25.3 29.3998 25.4 29.6998 25.4C30.0998 25.4 30.4998 25.3 30.7998 25C31.3998 24.6 31.9998 24 32.8998 23.1L33.9998 24.1C33.2998 25 32.4998 25.8 31.4998 26.3C30.5998 26.8 29.6998 27.1 28.8998 27.1C27.9998 27.1 27.1998 26.8 26.5998 26.3C25.9998 25.7 25.6998 25.1 25.6998 24.4C25.6998 23.9 25.7998 23.2 25.9998 22.4L28.4998 12.3H25.2998L25.5998 10.8C26.4998 10.8 27.2998 10.6 28.0998 10.4C28.7998 10.2 29.7998 9.9 30.7998 9.4H32.1998V9.4ZM31.9998 1C32.4998 1 32.8998 1.2 33.2998 1.5C33.5998 1.8 33.7998 2.3 33.7998 2.8C33.7998 3.4 33.5998 3.9 33.1998 4.4C32.6998 4.8 32.1998 5 31.6998 5C31.1998 5 30.6998 4.8 30.3998 4.5C29.9998 4.1 29.8998 3.7 29.8998 3.2C29.8998 2.6 30.0998 2.1 30.5998 1.6C31.0998 1.1 31.3998 1 31.9998 1Z" fill="#0070C0"/><path d="M44.0004 1L39.1004 22.6C38.9004 23.4 38.8004 23.9 38.8004 24.2C38.8004 24.6 38.9004 24.9 39.1004 25.1C39.3004 25.3 39.6004 25.4 39.9004 25.4C40.3004 25.4 40.7004 25.3 41.0004 25.1C41.5004 24.7 42.2004 24.1 43.0004 23.2L44.1004 24.2C42.4004 26.2 40.7004 27.2 39.0004 27.2C38.1004 27.2 37.3004 26.9 36.7004 26.4C36.1004 25.9 35.9004 25.2 35.9004 24.4C35.9004 23.9 36.0004 23.3 36.1004 22.7L40.5004 4H37.3004L37.6004 2.5C38.8004 2.3 39.8004 2.1 40.5004 1.9C41.2004 1.7 42.0004 1.4 42.7004 1H44.0004Z" fill="#0070C0"/><path d="M54.3002 1L49.4002 22.6C49.2002 23.4 49.1002 23.9 49.1002 24.2C49.1002 24.6 49.2002 24.9 49.4002 25.1C49.6002 25.3 49.9002 25.4 50.2002 25.4C50.6002 25.4 51.0002 25.3 51.3002 25.1C51.8002 24.7 52.5002 24.1 53.3002 23.2L54.4002 24.2C52.7002 26.2 51.0002 27.2 49.3002 27.2C48.4002 27.2 47.6002 26.9 47.0002 26.4C46.4002 25.9 46.2002 25.2 46.2002 24.4C46.2002 23.9 46.3002 23.3 46.4002 22.7L50.8002 4H47.6002L47.9002 2.5C49.1002 2.3 50.1002 2.1 50.8002 1.9C51.4002 1.7 52.2002 1.4 53.0002 1H54.3002Z" fill="#0070C0"/><path d="M71.0004 13.0998C70.4004 12.4998 69.7004 11.9998 68.9004 11.6998C68.1004 11.3998 67.4004 11.1998 66.6004 11.1998C65.4004 11.1998 64.3004 11.5998 63.2004 12.3998C62.1004 13.1998 61.1004 14.4998 60.3004 16.1998C59.5004 17.8998 59.1004 19.6998 59.1004 21.4998C59.1004 22.2998 59.2004 22.9998 59.5004 23.5998C59.8004 24.1998 60.1004 24.5998 60.6004 24.8998C61.0004 25.1998 61.5004 25.2998 62.0004 25.2998C63.0004 25.2998 64.0004 24.8998 65.0004 24.0998C66.3004 23.0998 67.6004 21.6998 68.6004 19.6998C69.7004 17.7998 70.5004 15.5998 71.0004 13.0998ZM72.3004 9.7998H74.5004L71.5004 22.9998C71.4004 23.4998 71.3004 23.8998 71.3004 24.1998C71.3004 24.5998 71.4004 24.8998 71.6004 25.0998C71.8004 25.2998 72.1004 25.3998 72.4004 25.3998C72.8004 25.3998 73.2004 25.2998 73.6004 24.9998C74.2004 24.5998 74.9004 23.9998 75.6004 23.0998L76.7004 24.0998C75.6004 25.2998 74.8004 25.9998 74.3004 26.2998C73.4004 26.7998 72.5004 27.0998 71.6004 27.0998C71.0004 27.0998 70.4004 26.9998 70.0004 26.6998C69.5004 26.4998 69.2004 26.0998 68.9004 25.6998C68.6004 25.1998 68.5004 24.7998 68.5004 24.2998C68.5004 23.8998 68.6004 23.1998 68.9004 22.1998C68.0004 23.4998 67.1004 24.4998 66.3004 25.1998C65.5004 25.8998 64.6004 26.3998 63.8004 26.6998C62.9004 26.9998 62.1004 27.1998 61.2004 27.1998C59.7004 27.1998 58.4004 26.6998 57.5004 25.5998C56.5004 24.3998 55.9004 22.8998 55.9004 20.9998C55.9004 18.8998 56.4004 16.9998 57.4004 15.0998C58.4004 13.2998 59.7004 11.7998 61.3004 10.7998C62.9004 9.7998 64.5004 9.2998 66.2004 9.2998C67.3004 9.2998 68.3004 9.4998 69.2004 9.8998C70.1004 10.2998 70.9004 10.7998 71.6004 11.5998L72.3004 9.7998Z" fill="#0070C0"/><path d="M93.8002 2.2998H103.4L103.1 3.7998H102.3C101.5 3.7998 101 3.8998 100.7 3.9998C100.4 4.0998 100.1 4.3998 99.9002 4.6998C99.7002 4.9998 99.5002 5.6998 99.3002 6.5998L97.3002 15.5998L108.5 6.1998C109.1 5.6998 109.5 5.2998 109.7 4.9998C109.8 4.7998 109.9 4.5998 109.9 4.3998C109.9 4.1998 109.8 3.9998 109.6 3.8998C109.4 3.7998 109 3.7998 108.3 3.7998H107.6L108 2.2998H117.3L116.9 3.7998C116.2 3.7998 115.7 3.8998 115.2 3.9998C114.7 4.0998 114.3 4.2998 113.9 4.4998C113.6 4.6998 113.1 5.0998 112.2 5.6998L103.9 12.3998L108.9 22.3998C109.4 23.3998 109.8 24.0998 110.2 24.4998C110.5 24.7998 110.8 24.9998 111.2 25.1998C111.6 25.3998 112.2 25.3998 113.1 25.3998L112.8 26.8998H103L103.4 25.3998H104.2C104.9 25.3998 105.4 25.2998 105.6 25.1998C105.9 24.9998 106 24.7998 106 24.3998C106 24.0998 105.9 23.6998 105.6 23.0998L101.4 14.3998L96.6002 18.1998L95.5002 22.6998C95.4002 23.2998 95.3002 23.6998 95.3002 23.9998C95.3002 24.1998 95.4002 24.4998 95.5002 24.6998C95.7002 24.8998 95.9002 25.0998 96.1002 25.1998C96.4002 25.2998 96.8002 25.2998 97.5002 25.2998H98.2002L97.9002 26.7998H88.2002L88.5002 25.2998H89.2002C90.0002 25.2998 90.6002 25.1998 91.0002 25.0998C91.4002 24.8998 91.7002 24.6998 91.9002 24.2998C92.1002 23.8998 92.3002 23.2998 92.5002 22.4998L96.1002 6.5998C96.3002 5.8998 96.3002 5.3998 96.3002 5.0998C96.3002 4.7998 96.2002 4.4998 96.1002 4.2998C96.0002 4.0998 95.8002 3.9998 95.5002 3.8998C95.2002 3.7998 94.8002 3.7998 94.1002 3.7998H93.4002L93.8002 2.2998Z" fill="#0070C0"/><path d="M123.7 9.40039L122.5 14.9004C123.1 13.9004 123.6 13.2004 124.2 12.6004C125.2 11.5004 126.3 10.7004 127.3 10.2004C128.4 9.70039 129.4 9.40039 130.4 9.40039C131.2 9.40039 131.9 9.50039 132.5 9.80039C133.1 10.1004 133.6 10.5004 133.9 11.1004C134.3 11.7004 134.4 12.2004 134.4 12.8004C134.4 13.3004 134.3 14.0004 134 15.1004L132.3 22.6004C132.1 23.3004 132.1 23.8004 132.1 24.1004C132.1 24.5004 132.2 24.7004 132.4 25.0004C132.6 25.3004 132.9 25.3004 133.2 25.3004C134 25.3004 135.1 24.5004 136.4 23.0004L137.5 24.0004C136.5 25.2004 135.6 26.0004 134.8 26.4004C134 26.8004 133.2 27.1004 132.4 27.1004C131.8 27.1004 131.2 27.0004 130.8 26.7004C130.3 26.5004 130 26.1004 129.7 25.6004C129.4 25.1004 129.3 24.6004 129.3 24.1004C129.3 23.6004 129.4 23.1004 129.5 22.3004L131.2 14.5004C131.4 13.8004 131.4 13.3004 131.4 13.0004C131.4 12.5004 131.2 12.1004 130.9 11.8004C130.6 11.5004 130.1 11.4004 129.6 11.4004C129 11.4004 128.3 11.6004 127.6 11.9004C126.9 12.2004 126.2 12.8004 125.4 13.6004C124.6 14.4004 123.9 15.4004 123.2 16.5004C122.5 17.6004 122 19.0004 121.4 20.7004C121.1 21.4004 120.9 22.5004 120.5 24.0004L119.9 26.8004H117L120.3 12.3004H117L117.4 10.9004C118.5 10.7004 119.4 10.6004 120 10.4004C120.6 10.2004 121.4 9.90039 122.4 9.50039H123.7V9.40039Z" fill="#0070C0"/><path d="M143 18C145.7 17.7 147.6 17.4 148.8 17.1C150.7 16.6 152 16.1 152.7 15.4C153.4 14.7 153.8 14 153.8 13.3C153.8 12.6 153.5 12.1 153 11.6C152.5 11.1 151.7 10.9 150.8 10.9C149.8 10.9 148.7 11.2 147.6 11.8C146.5 12.4 145.5 13.2 144.7 14.2C143.9 15.4 143.3 16.7 143 18ZM154.5 22.2L155.5 23.3C154 24.6 152.5 25.6 150.9 26.3C149.3 27 147.7 27.3 146.2 27.3C144.1 27.3 142.5 26.7 141.2 25.4C139.9 24.1 139.3 22.5 139.3 20.4C139.3 18.5 139.8 16.8 140.9 15.1C141.9 13.4 143.4 12.1 145.2 11C147.1 10 149 9.5 151.2 9.5C152.9 9.5 154.2 9.9 155.2 10.7C156.2 11.5 156.6 12.4 156.6 13.4C156.6 14 156.4 14.7 156 15.4C155.6 16.1 154.9 16.7 153.9 17.3C152.9 17.9 151.5 18.4 149.6 18.8C147.7 19.2 145.4 19.5 142.7 19.6C142.6 20.1 142.6 20.4 142.6 20.6C142.6 21.5 142.8 22.4 143.2 23.1C143.6 23.8 144.2 24.4 144.9 24.8C145.6 25.2 146.4 25.4 147.2 25.4C148.2 25.4 149.4 25.1 150.7 24.6C152 24 153.3 23.2 154.5 22.2Z" fill="#0070C0"/><path d="M177 9.7998L176.6 11.3998L162.2 24.9998C162.6 24.9998 162.8 24.8998 162.9 24.8998C163.3 24.8998 164.6 25.0998 166.8 25.3998C167.9 25.5998 168.8 25.6998 169.4 25.6998C170 25.6998 170.5 25.5998 171.1 25.2998C171.6 24.9998 172 24.7998 172.2 24.3998C172.4 24.0998 172.6 23.4998 172.6 22.7998C172.7 22.0998 172.9 21.4998 173.2 21.1998C173.5 20.8998 173.9 20.6998 174.3 20.6998C174.7 20.6998 175.1 20.8998 175.4 21.1998C175.7 21.4998 175.9 21.8998 175.9 22.3998C175.9 23.1998 175.6 23.9998 175.1 24.7998C174.6 25.5998 173.9 26.1998 172.9 26.5998C172 26.9998 170.9 27.2998 169.7 27.2998C169.2 27.2998 168.6 27.2998 168.1 27.1998C167.8 27.1998 167 27.0998 165.7 26.8998C164.4 26.6998 163.5 26.5998 163.1 26.4998C162.5 26.3998 161.9 26.3998 161.3 26.3998C160 26.3998 158.7 26.5998 157.5 26.8998L157.8 25.2998L172.4 11.6998C172 11.7998 171.6 11.7998 171.4 11.7998C171 11.7998 169.9 11.5998 168.1 11.2998C167.2 11.0998 166.5 11.0998 166 11.0998C165.3 11.0998 164.7 11.2998 164.3 11.5998C163.8 11.9998 163.5 12.5998 163.3 13.3998C163.1 13.9998 163 14.4998 162.8 14.6998C162.5 14.9998 162.1 15.1998 161.6 15.1998C161.1 15.1998 160.8 14.9998 160.5 14.6998C160.2 14.3998 160.1 13.9998 160.1 13.3998C160.1 12.3998 160.6 11.4998 161.6 10.5998C162.6 9.7998 163.9 9.2998 165.5 9.2998C166.1 9.2998 166.6 9.2998 167.2 9.3998C167.5 9.3998 168.3 9.5998 169.6 9.7998C170.9 9.9998 171.6 10.1998 172 10.1998C172.5 10.2998 173 10.2998 173.5 10.2998C174.4 10.3998 175.7 10.1998 177 9.7998Z" fill="#0070C0"/><path d="M56.9 44.4H53.8L53.3 45.7C53.2 46 53.1 46.2 53.1 46.4C53.1 46.5 53.2 46.6 53.3 46.7C53.4 46.8 53.7 46.9 54 46.9V47.1H51.5V46.9C51.8 46.8 52 46.8 52.1 46.7C52.3 46.5 52.5 46.1 52.8 45.6L55.6 39.1H55.8L58.6 45.7C58.8 46.2 59 46.6 59.2 46.7C59.4 46.8 59.6 46.9 60 47V47.2H56.9V47C57.2 47 57.4 46.9 57.5 46.8C57.6 46.7 57.7 46.6 57.7 46.5C57.7 46.3 57.6 46.1 57.5 45.7L56.9 44.4ZM56.7 44L55.4 40.8L54 44H56.7ZM62.5 43.4V45.7C62.5 46.2 62.6 46.5 62.7 46.6C62.8 46.8 63.1 46.9 63.4 46.9H63.7V47.1H60.3V46.9H60.6C60.9 46.9 61.2 46.8 61.3 46.6C61.4 46.5 61.4 46.2 61.4 45.7V40.6C61.4 40.1 61.3 39.8 61.2 39.7C61 39.5 60.8 39.4 60.5 39.4H60.2V39.2H63.1C63.8 39.2 64.4 39.3 64.8 39.4C65.2 39.5 65.6 39.8 65.8 40.1C66.1 40.4 66.2 40.9 66.2 41.3C66.2 41.9 66 42.5 65.6 42.9C65.2 43.3 64.6 43.5 63.8 43.5C63.6 43.5 63.4 43.5 63.2 43.5C63 43.4 62.8 43.4 62.5 43.4ZM62.5 43C62.7 43 62.9 43.1 63.1 43.1C63.3 43.1 63.4 43.1 63.5 43.1C63.9 43.1 64.3 42.9 64.6 42.6C64.9 42.3 65 41.9 65 41.4C65 41.1 64.9 40.7 64.8 40.4C64.7 40.1 64.5 39.9 64.2 39.7C63.9 39.5 63.6 39.5 63.3 39.5C63.1 39.5 62.8 39.5 62.5 39.6V43ZM72.2 44.4H69.1L68.6 45.7C68.5 46 68.4 46.2 68.4 46.4C68.4 46.5 68.5 46.6 68.6 46.7C68.7 46.8 69 46.9 69.3 46.9V47.1H66.8V46.9C67.1 46.8 67.3 46.8 67.4 46.7C67.6 46.5 67.8 46.1 68.1 45.6L70.9 39.1H71.1L73.9 45.7C74.1 46.2 74.3 46.6 74.5 46.7C74.7 46.8 74.9 46.9 75.3 47V47.2H72.2V47C72.5 47 72.7 46.9 72.8 46.8C72.9 46.7 73 46.6 73 46.5C73 46.3 72.9 46.1 72.8 45.7L72.2 44.4ZM72.1 44L70.8 40.8L69.3 44H72.1ZM83.5 47.1H81.4L78.7 43.4C78.5 43.4 78.3 43.4 78.2 43.4C78.1 43.4 78.1 43.4 78 43.4C77.9 43.4 77.9 43.4 77.8 43.4V45.7C77.8 46.2 77.9 46.5 78 46.6C78.1 46.8 78.4 46.9 78.7 46.9H79V47.1H75.6V46.9H75.9C76.2 46.9 76.5 46.8 76.6 46.6C76.7 46.5 76.7 46.2 76.7 45.7V40.6C76.7 40.1 76.6 39.8 76.5 39.7C76.3 39.5 76.1 39.4 75.8 39.4H75.5V39.2H78.4C79.2 39.2 79.9 39.3 80.3 39.4C80.7 39.5 81 39.7 81.3 40.1C81.6 40.4 81.7 40.8 81.7 41.3C81.7 41.8 81.5 42.2 81.2 42.6C80.9 43 80.4 43.2 79.7 43.4L81.3 45.7C81.7 46.2 82 46.6 82.3 46.7C82.6 46.9 82.9 47 83.4 47V47.1H83.5ZM77.9 43C78 43 78 43 78.1 43C78.2 43 78.2 43 78.2 43C79 43 79.5 42.8 79.9 42.5C80.3 42.2 80.5 41.8 80.5 41.2C80.5 40.7 80.3 40.3 80 40C79.7 39.7 79.3 39.5 78.8 39.5C78.6 39.5 78.3 39.5 77.9 39.6V43V43ZM90.4 39.1L90.5 41H90.3C90.3 40.7 90.2 40.4 90.1 40.3C90 40.1 89.8 39.9 89.6 39.8C89.4 39.7 89.1 39.6 88.8 39.6H87.7V45.7C87.7 46.2 87.8 46.5 87.9 46.6C88 46.8 88.3 46.8 88.6 46.8H88.9V47H85.5V46.8H85.8C86.1 46.8 86.4 46.7 86.5 46.5C86.6 46.4 86.6 46.1 86.6 45.6V39.5H85.6C85.2 39.5 85 39.5 84.8 39.6C84.6 39.7 84.4 39.8 84.3 40C84.1 40.3 84 40.6 84 41H83.8L83.9 39.1H90.4ZM95.7 47.1L92.6 40.4V45.7C92.6 46.2 92.7 46.5 92.8 46.6C92.9 46.8 93.2 46.8 93.5 46.8H93.8V47H91V46.8H91.3C91.6 46.8 91.9 46.7 92 46.5C92.1 46.4 92.1 46.1 92.1 45.6V40.4C92.1 40 92.1 39.8 92 39.6C91.9 39.5 91.8 39.4 91.7 39.3C91.6 39.2 91.3 39.2 91 39.2V39H93.3L96.2 45.2L99 39H101.3V39.2H101C100.7 39.2 100.4 39.3 100.3 39.5C100.2 39.6 100.2 39.9 100.2 40.4V45.6C100.2 46.1 100.3 46.4 100.4 46.5C100.5 46.7 100.8 46.7 101.1 46.7H101.4V46.9H98V46.7H98.3C98.6 46.7 98.9 46.6 99 46.4C99.1 46.3 99.1 46 99.1 45.5V40.2L96 46.9H95.7V47.1ZM106.9 44.4H103.8L103.3 45.7C103.2 46 103.1 46.2 103.1 46.4C103.1 46.5 103.2 46.6 103.3 46.7C103.4 46.8 103.7 46.9 104 46.9V47.1H101.5V46.9C101.8 46.8 102 46.8 102.1 46.7C102.3 46.5 102.5 46.1 102.8 45.6L105.6 39.1H105.8L108.6 45.7C108.8 46.2 109 46.6 109.2 46.7C109.4 46.8 109.6 46.9 110 47V47.2H106.9V47C107.2 47 107.4 46.9 107.5 46.8C107.6 46.7 107.7 46.6 107.7 46.5C107.7 46.3 107.6 46.1 107.5 45.7L106.9 44.4ZM106.8 44L105.5 40.8L104 44H106.8ZM109.9 39.1H112.1L117 45.1V40.5C117 40 116.9 39.7 116.8 39.6C116.7 39.4 116.4 39.4 116.1 39.4H115.8V39.2H118.6V39.4H118.3C118 39.4 117.7 39.5 117.6 39.7C117.5 39.8 117.5 40.1 117.5 40.6V47.3H117.3L112.1 40.9V45.8C112.1 46.3 112.2 46.6 112.3 46.7C112.4 46.9 112.7 46.9 113 46.9H113.3V47.1H110.5V46.9H110.8C111.1 46.9 111.4 46.8 111.5 46.6C111.6 46.5 111.6 46.2 111.6 45.7V40.2C111.4 39.9 111.2 39.8 111.1 39.7C111 39.6 110.8 39.5 110.6 39.5C110.5 39.5 110.3 39.4 110.1 39.4V39.1H109.9ZM122.5 46.9V47.1H119.1V46.9H119.4C119.7 46.9 120 46.8 120.1 46.6C120.2 46.5 120.2 46.2 120.2 45.7V40.6C120.2 40.2 120.2 39.9 120.1 39.8C120.1 39.7 120 39.6 119.9 39.5C119.7 39.4 119.5 39.4 119.4 39.4H119.1V39.2H122.5V39.4H122.2C121.9 39.4 121.6 39.5 121.5 39.7C121.4 39.8 121.4 40.1 121.4 40.6V45.7C121.4 46.1 121.4 46.4 121.5 46.5C121.5 46.6 121.6 46.7 121.7 46.8C121.9 46.9 122 46.9 122.2 46.9H122.5Z" fill="#0070C0"/><path d="M36.0002 63.4004V67.3004C36.0002 68.1004 36.1002 68.7004 36.3002 68.9004C36.5002 69.2004 36.9002 69.3004 37.4002 69.3004H37.9002V69.7004H32.2002V69.3004H32.7002C33.3002 69.3004 33.7002 69.1004 33.9002 68.8004C34.0002 68.6004 34.1002 68.1004 34.1002 67.4004V58.8004C34.1002 58.0004 34.0002 57.4004 33.8002 57.2004C33.5002 56.9004 33.2002 56.8004 32.7002 56.8004H32.2002V56.4004H37.1002C38.3002 56.4004 39.2002 56.5004 39.9002 56.8004C40.6002 57.0004 41.2002 57.5004 41.6002 58.0004C42.1002 58.6004 42.3002 59.3004 42.3002 60.1004C42.3002 61.2004 41.9002 62.1004 41.2002 62.7004C40.5002 63.4004 39.5002 63.7004 38.2002 63.7004C37.9002 63.7004 37.5002 63.7004 37.2002 63.6004C36.8002 63.5004 36.4002 63.5004 36.0002 63.4004ZM36.0002 62.8004C36.3002 62.9004 36.7002 62.9004 36.9002 62.9004C37.2002 62.9004 37.4002 62.9004 37.6002 62.9004C38.3002 62.9004 38.9002 62.6004 39.4002 62.1004C39.9002 61.6004 40.1002 60.9004 40.1002 60.1004C40.1002 59.5004 40.0002 59.0004 39.7002 58.5004C39.5002 58.0004 39.1002 57.6004 38.7002 57.4004C38.3002 57.2004 37.8002 57.0004 37.2002 57.0004C36.9002 57.0004 36.4002 57.1004 35.9002 57.2004V62.8004H36.0002Z" fill="#0070C0"/><path d="M56.4998 69.5998H52.9998L48.4998 63.3998C48.1998 63.3998 47.8998 63.3998 47.6998 63.3998C47.5998 63.3998 47.4998 63.3998 47.3998 63.3998C47.2998 63.3998 47.1998 63.3998 47.0998 63.3998V67.1998C47.0998 67.9998 47.1998 68.5998 47.3998 68.7998C47.5998 69.0998 47.9998 69.1998 48.4998 69.1998H48.9998V69.5998H43.2998V69.1998H43.7998C44.3998 69.1998 44.7998 68.9998 44.9998 68.6998C45.0998 68.4998 45.1998 67.9998 45.1998 67.2998V58.6998C45.1998 57.8998 45.0998 57.2998 44.8998 57.0998C44.5998 56.7998 44.2998 56.6998 43.7998 56.6998H43.2998V56.2998H48.0998C49.4998 56.2998 50.4998 56.3998 51.1998 56.5998C51.8998 56.7998 52.3998 57.1998 52.8998 57.6998C53.3998 58.2998 53.5998 58.8998 53.5998 59.6998C53.5998 60.4998 53.2998 61.1998 52.7998 61.7998C52.2998 62.3998 51.3998 62.7998 50.2998 63.0998L52.9998 66.8998C53.5998 67.7998 54.1998 68.3998 54.5998 68.5998C54.9998 68.8998 55.5998 69.0998 56.3998 69.0998V69.5998H56.4998ZM47.0998 62.7998C47.1998 62.7998 47.2998 62.7998 47.3998 62.7998C47.4998 62.7998 47.5998 62.7998 47.5998 62.7998C48.8998 62.7998 49.7998 62.4998 50.4998 61.9998C51.0998 61.4998 51.4998 60.7998 51.4998 59.8998C51.4998 59.0998 51.1998 58.3998 50.6998 57.8998C50.1998 57.3998 49.4998 57.0998 48.5998 57.0998C48.1998 57.0998 47.6998 57.1998 47.0998 57.2998V62.7998Z" fill="#0070C0"/><path d="M62.4998 69.1998V69.5998H56.7998V69.1998H57.2998C57.7998 69.1998 58.1998 68.9998 58.4998 68.6998C58.6998 68.4998 58.6998 67.9998 58.6998 67.1998V58.5998C58.6998 57.8998 58.6998 57.4998 58.5998 57.2998C58.4998 57.0998 58.3998 56.9998 58.1998 56.8998C57.8998 56.6998 57.5998 56.6998 57.2998 56.6998H56.7998V56.2998H62.4998V56.6998H61.9998C61.4998 56.6998 61.0998 56.8998 60.7998 57.1998C60.5998 57.3998 60.5998 57.8998 60.5998 58.6998V67.2998C60.5998 67.9998 60.5998 68.3998 60.6998 68.5998C60.7998 68.7998 60.8998 68.8998 61.0998 68.9998C61.3998 69.1998 61.6998 69.1998 61.9998 69.1998H62.4998Z" fill="#0070C0"/><path d="M71.2004 69.5998L66.1004 58.4998V67.3998C66.1004 68.1998 66.2004 68.6998 66.4004 68.8998C66.6004 69.1998 67.0004 69.2998 67.5004 69.2998H68.0004V69.6998H63.4004V69.2998H63.9004C64.5004 69.2998 64.9004 69.0998 65.1004 68.7998C65.2004 68.5998 65.3004 68.0998 65.3004 67.3998V58.6998C65.3004 58.0998 65.2004 57.6998 65.1004 57.3998C65.0004 57.1998 64.8004 57.0998 64.6004 56.8998C64.4004 56.7998 64.0004 56.6998 63.4004 56.6998V56.2998H67.2004L72.0004 66.6998L76.7004 56.2998H80.5004V56.6998H80.0004C79.4004 56.6998 79.0004 56.8998 78.8004 57.1998C78.7004 57.3998 78.6004 57.8998 78.6004 58.5998V67.2998C78.6004 68.0998 78.7004 68.5998 78.9004 68.7998C79.1004 69.0998 79.5004 69.1998 80.0004 69.1998H80.5004V69.5998H74.9004V69.1998H75.4004C76.0004 69.1998 76.4004 68.9998 76.6004 68.6998C76.7004 68.4998 76.8004 67.9998 76.8004 67.2998V58.3998L71.7004 69.4998H71.2004V69.5998Z" fill="#0070C0"/><path d="M83.6 57.7996C84.8 56.5996 86.3 56.0996 88.1 56.0996C89.8 56.0996 91.3 56.7996 92.6 58.0996C93.9 59.3996 94.5 60.9996 94.5 62.9996C94.5 64.9996 93.9 66.6996 92.6 67.9996C91.3 69.2996 89.8 69.9996 88 69.9996C86.2 69.9996 84.6 69.3996 83.4 68.0996C82.2 66.7996 81.5 65.0996 81.5 63.0996C81.5 60.7996 82.2 59.0996 83.6 57.7996ZM90.9 58.0996C90.2 57.1996 89.2 56.7996 87.9 56.7996C86.7 56.7996 85.8 57.1996 85 58.0996C84.1 59.1996 83.7 60.7996 83.7 62.8996C83.7 65.0996 84.2 66.6996 85.1 67.8996C85.8 68.7996 86.7 69.1996 87.9 69.1996C89.1 69.1996 90.2 68.6996 91 67.6996C91.8 66.6996 92.2 65.1996 92.2 63.0996C92.2 60.8996 91.8 59.1996 90.9 58.0996Z" fill="#0070C0"/><path d="M104.4 55.9996V60.5996H104C103.9 59.6996 103.7 58.9996 103.4 58.4996C103.1 57.9996 102.7 57.5996 102.1 57.2996C101.5 56.9996 101 56.7996 100.4 56.7996C99.7004 56.7996 99.2004 56.9996 98.7004 57.3996C98.3004 57.7996 98.0004 58.2996 98.0004 58.7996C98.0004 59.1996 98.1004 59.5996 98.4004 59.8996C98.8004 60.3996 99.8004 60.9996 101.3 61.8996C102.5 62.5996 103.4 63.0996 103.8 63.3996C104.3 63.7996 104.6 64.1996 104.8 64.6996C105 65.1996 105.2 65.6996 105.2 66.1996C105.2 67.1996 104.8 68.0996 104 68.7996C103.2 69.4996 102.2 69.8996 101 69.8996C100.6 69.8996 100.3 69.8996 99.9004 69.7996C99.7004 69.7996 99.3004 69.5996 98.6004 69.3996C97.9004 69.1996 97.6004 69.0996 97.4004 69.0996C97.2004 69.0996 97.1004 69.0996 97.0004 69.1996C96.9004 69.2996 96.8004 69.4996 96.8004 69.7996H96.4004V65.2996H97.0004C97.2004 66.2996 97.4004 66.9996 97.7004 67.3996C98.0004 67.8996 98.4004 68.2996 99.0004 68.5996C99.6004 68.8996 100.2 69.0996 100.9 69.0996C101.7 69.0996 102.4 68.8996 102.8 68.4996C103.3 68.0996 103.5 67.5996 103.5 66.9996C103.5 66.6996 103.4 66.2996 103.2 65.9996C103 65.6996 102.7 65.3996 102.4 65.0996C102.1 64.8996 101.5 64.4996 100.3 63.8996C99.1004 63.2996 98.4004 62.7996 97.9004 62.3996C97.4004 61.9996 97.1004 61.5996 96.8004 61.0996C96.6004 60.5996 96.4004 60.0996 96.4004 59.5996C96.4004 58.5996 96.8004 57.7996 97.5004 57.0996C98.2004 56.3996 99.2004 56.0996 100.3 56.0996C101 56.0996 101.7 56.2996 102.5 56.5996C102.9 56.7996 103.1 56.7996 103.3 56.7996C103.5 56.7996 103.6 56.6996 103.7 56.5996C103.8 56.4996 103.9 56.2996 104 55.9996H104.4V55.9996ZM101.7 55.2996H99.9004L98.0004 52.0996H98.3004L101 54.1996L103.2 52.0996H103.5L101.7 55.2996Z" fill="#0070C0"/><path d="M118 56.2998L118.1 59.3998H117.7C117.6 58.8998 117.5 58.4998 117.4 58.1998C117.2 57.7998 116.9 57.4998 116.6 57.3998C116.3 57.1998 115.8 57.0998 115.3 57.0998H113.4V67.1998C113.4 67.9998 113.5 68.4998 113.7 68.6998C113.9 68.9998 114.3 69.0998 114.8 69.0998H115.3V69.4998H109.7V69.0998H110.2C110.8 69.0998 111.2 68.8998 111.4 68.5998C111.5 68.3998 111.6 67.8998 111.6 67.1998V57.1998H110C109.4 57.1998 108.9 57.1998 108.7 57.2998C108.4 57.3998 108.1 57.6998 107.8 57.9998C107.6 58.3998 107.4 58.7998 107.4 59.3998H107L107.2 56.2998H118V56.2998Z" fill="#0070C0"/><path d="M122.8 57.0998V62.2998H125.7C126.5 62.2998 127 62.1998 127.2 61.9998C127.5 61.6998 127.7 61.1998 127.8 60.3998H128.2V64.9998H127.8C127.7 64.3998 127.6 63.8998 127.5 63.7998C127.4 63.5998 127.2 63.3998 126.9 63.2998C126.6 63.1998 126.2 63.0998 125.7 63.0998H122.8V67.4998C122.8 68.0998 122.8 68.3998 122.9 68.5998C123 68.6998 123 68.7998 123.2 68.8998C123.3 68.9998 123.6 68.9998 123.9 68.9998H126.1C126.8 68.9998 127.4 68.8998 127.7 68.7998C128 68.6998 128.4 68.4998 128.7 68.1998C129.1 67.7998 129.5 67.1998 129.9 66.3998H130.3L129.2 69.6998H119V69.2998H119.5C119.8 69.2998 120.1 69.1998 120.4 69.0998C120.6 68.9998 120.8 68.7998 120.8 68.5998C120.9 68.3998 120.9 67.9998 120.9 67.2998V58.6998C120.9 57.8998 120.8 57.2998 120.6 57.0998C120.4 56.7998 120 56.6998 119.4 56.6998H119V56.2998H129.2L129.3 59.1998H129C128.9 58.4998 128.7 57.9998 128.5 57.7998C128.3 57.4998 128.1 57.2998 127.8 57.1998C127.5 57.0998 127.1 57.0998 126.4 57.0998H122.8V57.0998Z" fill="#0070C0"/><path d="M130.6 56.2998H134.2L142.3 66.1998V58.5998C142.3 57.7998 142.2 57.2998 142 57.0998C141.8 56.7998 141.4 56.6998 140.9 56.6998H140.4V56.2998H145V56.6998H144.5C143.9 56.6998 143.5 56.8998 143.3 57.1998C143.2 57.3998 143.1 57.8998 143.1 58.5998V69.7998H142.7L134 59.0998V67.2998C134 68.0998 134.1 68.5998 134.3 68.7998C134.5 69.0998 134.9 69.1998 135.4 69.1998H135.9V69.5998H131.3V69.1998H131.8C132.4 69.1998 132.8 68.9998 133 68.6998C133.1 68.4998 133.2 67.9998 133.2 67.2998V58.0998C132.8 57.6998 132.5 57.3998 132.3 57.1998C132.1 57.0998 131.8 56.8998 131.4 56.7998C131.2 56.6998 130.9 56.6998 130.5 56.6998V56.2998H130.6Z" fill="#0070C0"/></svg>